<svg id="eGIUKx1drQE1" xmlns="http://www.w3.org/2000/svg" xmlns:xlink="http://www.w3.org/1999/xlink" viewBox="0 0 100 100" shape-rendering="geometricPrecision" text-rendering="geometricPrecision" style="background-color:rgba(241,242,243,0)">
<style><![CDATA[
#eGIUKx1drQE4_to {animation: eGIUKx1drQE4_to__to 2500ms linear 1 normal forwards}@keyframes eGIUKx1drQE4_to__to { 0% {transform: translate(-32.974998px,61.504021px)} 80% {transform: translate(50.000458px,61.504021px)} 100% {transform: translate(50.000458px,61.504021px)}} #eGIUKx1drQE12_to {animation: eGIUKx1drQE12_to__to 2500ms linear 1 normal forwards}@keyframes eGIUKx1drQE12_to__to { 0% {transform: translate(49.999502px,59.882498px)} 80% {transform: translate(50.371002px,1.083392px)} 100% {transform: translate(50.371002px,1.083392px)}} #eGIUKx1drQE17_to {animation: eGIUKx1drQE17_to__to 2500ms linear 1 normal forwards}@keyframes eGIUKx1drQE17_to__to { 0% {transform: translate(50.000002px,35.965978px)} 80% {transform: translate(-28.102058px,34.871513px)} 100% {transform: translate(-28.102058px,34.871513px)}}
]]></style>
<g transform="matrix(.8 0 0 0.8 13.599634 13.599789)"><g><g id="eGIUKx1drQE4_to" transform="translate(-32.974998,61.504021)"><g transform="translate(-50.000458,-61.819281)"><g transform="matrix(.91 0 0 0.91 0 0.000001)"><path d="M65.517,50.084l1.609-5.567c.297905-1.032183-.296986-2.110508-1.329-2.409l-4.696-1.357c-3.653-1.056-7.432.428-9.467,3.404-.544093-.040158-1.08943-.061171-1.635-.063-.604,0-1.2.032-1.792.077-2.032-2.986-5.818-4.476-9.477-3.418l-4.696,1.357c-1.032014.298492-1.626905,1.376817-1.329,2.409l1.645,5.691C30.133,54.13,27.5,59.61,27.5,65.695v14.467c0,2.984,2.52,5.403,5.628,5.403h33.745c3.108,0,5.628-2.419,5.628-5.403v-14.467c-.001-6.148-2.688-11.681-6.984-15.611Z" fill="#000"/></g></g></g><g><g transform="matrix(.91 0 0 0.91 0 0)"><path d="M53.905,64.72l-2.026,1.274c-.973.612-2.784.612-3.757,0L46.096,64.72c-2.052-1.29-3.01-2.955-2.655-4.616l3.588-16.79h5.943l3.588,16.79c.354,1.662-.603,3.326-2.655,4.616Z" fill="#e0e0e0"/></g></g><g transform="translate(-.33715 53.507187)"><g transform="matrix(.91 0 0 0.91 0 0)"><g id="eGIUKx1drQE12_to" transform="translate(49.999502,59.882498)"><path d="M50,53.312h-1.692L46.985,65.28l1.136.714c.973.612,2.784.612,3.757,0l1.136-.714-1.323-11.967h-1.691Z" transform="translate(-49.999502,-59.882498)" fill="#7f0000"/></g></g></g><g><g transform="matrix(.91 0 0 0.91 0 0)"><path d="M51.692,53.312h-3.384l-1.591-3.82c-.171257-.410582-.125895-.8796.120873-1.249751s.66226-.592416,1.107127-.592249h4.111c.444867-.000167.860359.222097,1.107127.592249s.29213.839169.120873,1.249751l-1.592,3.82Z" fill="#7f0000"/></g></g><g transform="translate(78.102518 1.92192)"><g id="eGIUKx1drQE17_to" transform="translate(50.000002,35.965978)"><g transform="scale(0.91,0.91) translate(-54.945057,-39.523052)"><circle r="14.513" transform="translate(50 34.578)" fill="#c7b299"/></g></g></g><g><g transform="matrix(.91 0 0 0.91 0 0)"><ellipse rx="19.625" ry="2.64" transform="translate(50 29.704)" fill="#000"/></g></g><g><g transform="matrix(.91 0 0 0.91 0 0)"><path d="M63.632,29.12h-27.264l1.107-7.896c.343-4.797,3.597-7.907,6.705-6.41l4.225,2.034c1.004792.498993,2.185208.498993,3.19,0l4.225-2.034c3.109-1.497,6.362,1.613,6.705,6.41l1.107,7.896Z" fill="#000"/></g></g><g transform="translate(.033088 0.000002)"><g transform="matrix(.91 0 0 0.91 0 0)"><path d="M60.425,33.315h-7.231c-.432,0-.844.19-1.135.523l-.819.939h-2.483l-.819-.939c-.284894-.330272-.698835-.521013-1.135-.523h-7.231c-1.301,0-2.291,1.218-2.079,2.556l.374,2.355c.168,1.061,1.048,1.839,2.079,1.839h5.389c1.443,0,2.727-.956,3.196-2.379l.357-1.083h2.221l.357,1.083c.469,1.423,1.753,2.379,3.196,2.379h5.366c.998,0,1.849-.753,2.012-1.78l.396-2.497c.206-1.295-.752-2.473-2.011-2.473Z" fill="#000"/></g></g></g></g></svg>
