<svg xmlns="http://www.w3.org/2000/svg" xmlns:xlink="http://www.w3.org/1999/xlink" viewBox="0 0 600 600" width="600" height="600" preserveAspectRatio="xMidYMid meet" style="width: 100%; height: 100%; transform: translate3d(0px, 0px, 0px); content-visibility: visible;"><defs><clipPath id="__lottie_element_2"><rect width="600" height="600" x="0" y="0"></rect></clipPath></defs><g clip-path="url(#__lottie_element_2)"><g transform="matrix(1,0,0,1,300,300)" opacity="1" style="display: block;"><g opacity="1" transform="matrix(1,0,0,1,0,-177)"><path stroke-linecap="butt" stroke-linejoin="miter" fill-opacity="0" stroke-miterlimit="4" stroke="rgb(68,137,132)" stroke-opacity="1" stroke-width="12" d=" M0,-60.5 C12.417750358581543,-60.5 22.5,-50.41775131225586 22.5,-38 C22.5,-25.582250595092773 12.417750358581543,-15.5 0,-15.5 C-12.417750358581543,-15.5 -22.5,-25.582250595092773 -22.5,-38 C-22.5,-50.41775131225586 -12.417750358581543,-60.5 0,-60.5z M0,-60.5 C12.417750358581543,-60.5 22.5,-50.41775131225586 22.5,-38 C22.5,-25.582250595092773 12.417750358581543,-15.5 0,-15.5 C-12.417750358581543,-15.5 -22.5,-25.582250595092773 -22.5,-38 C-22.5,-50.41775131225586 -12.417750358581543,-60.5 0,-60.5z M0,-60.5 C12.417750358581543,-60.5 22.5,-50.41775131225586 22.5,-38 C22.5,-25.582250595092773 12.417750358581543,-15.5 0,-15.5 C-12.417750358581543,-15.5 -22.5,-25.582250595092773 -22.5,-38 C-22.5,-50.41775131225586 -12.417750358581543,-60.5 0,-60.5z M0,-60.5 C12.417750358581543,-60.5 22.5,-50.41775131225586 22.5,-38 C22.5,-25.582250595092773 12.417750358581543,-15.5 0,-15.5 C-12.417750358581543,-15.5 -22.5,-25.582250595092773 -22.5,-38 C-22.5,-50.41775131225586 -12.417750358581543,-60.5 0,-60.5z"></path></g><g opacity="1" transform="matrix(1,0,0,1,0,0)"><path fill="rgb(68,137,132)" fill-opacity="1" d=" M6,-196 C6,-196 6,-158 6,-158 C6,-158 -6,-158 -6,-158 C-6,-158 -6,-196 -6,-196 C-6,-196 6,-196 6,-196z M6,-196 C6,-196 6,-158 6,-158 C6,-158 -6,-158 -6,-158 C-6,-158 -6,-196 -6,-196 C-6,-196 6,-196 6,-196z M6,-196 C6,-196 6,-158 6,-158 C6,-158 -6,-158 -6,-158 C-6,-158 -6,-196 -6,-196 C-6,-196 6,-196 6,-196z M6,-196 C6,-196 6,-158 6,-158 C6,-158 -6,-158 -6,-158 C-6,-158 -6,-196 -6,-196 C-6,-196 6,-196 6,-196z"></path></g><g opacity="1" transform="matrix(0.7071067690849304,-0.7071067690849304,0.7071067690849304,0.7071067690849304,0,0)"><g opacity="1" transform="matrix(0,1,-1,0,0,0)"><path fill="rgb(68,137,132)" fill-opacity="1" d=" M15.5,-186.40220642089844 C15.5,-186.40220642089844 15.5,-145.40220642089844 15.5,-145.40220642089844 C15.5,-142.09080505371094 12.811400413513184,-139.40220642089844 9.5,-139.40220642089844 C9.5,-139.40220642089844 -9.5,-139.40220642089844 -9.5,-139.40220642089844 C-12.811400413513184,-139.40220642089844 -15.5,-142.09080505371094 -15.5,-145.40220642089844 C-15.5,-145.40220642089844 -15.5,-186.40220642089844 -15.5,-186.40220642089844 C-15.5,-189.71360778808594 -12.811400413513184,-192.40220642089844 -9.5,-192.40220642089844 C-9.5,-192.40220642089844 9.5,-192.40220642089844 9.5,-192.40220642089844 C12.811400413513184,-192.40220642089844 15.5,-189.71360778808594 15.5,-186.40220642089844z"></path></g><g opacity="1" transform="matrix(1,0,0,1,0,0)"><path fill="rgb(68,137,132)" fill-opacity="1" d=" M15.5,-186.40220642089844 C15.5,-186.40220642089844 15.5,-145.40220642089844 15.5,-145.40220642089844 C15.5,-142.09080505371094 12.811400413513184,-139.40220642089844 9.5,-139.40220642089844 C9.5,-139.40220642089844 -9.5,-139.40220642089844 -9.5,-139.40220642089844 C-12.811400413513184,-139.40220642089844 -15.5,-142.09080505371094 -15.5,-145.40220642089844 C-15.5,-145.40220642089844 -15.5,-186.40220642089844 -15.5,-186.40220642089844 C-15.5,-189.71360778808594 -12.811400413513184,-192.40220642089844 -9.5,-192.40220642089844 C-9.5,-192.40220642089844 9.5,-192.40220642089844 9.5,-192.40220642089844 C12.811400413513184,-192.40220642089844 15.5,-189.71360778808594 15.5,-186.40220642089844z"></path></g></g><g opacity="1" transform="matrix(1,0,0,1,0,0)"><path fill="rgb(240,240,211)" fill-opacity="1" d=" M0,-156.5 C86.37235260009766,-156.5 156.5,-86.37235260009766 156.5,0 C156.5,86.37235260009766 86.37235260009766,156.5 0,156.5 C-86.37235260009766,156.5 -156.5,86.37235260009766 -156.5,0 C-156.5,-86.37235260009766 -86.37235260009766,-156.5 0,-156.5z M0,-156.5 C86.37235260009766,-156.5 156.5,-86.37235260009766 156.5,0 C156.5,86.37235260009766 86.37235260009766,156.5 0,156.5 C-86.37235260009766,156.5 -156.5,86.37235260009766 -156.5,0 C-156.5,-86.37235260009766 -86.37235260009766,-156.5 0,-156.5z M0,-156.5 C86.37235260009766,-156.5 156.5,-86.37235260009766 156.5,0 C156.5,86.37235260009766 86.37235260009766,156.5 0,156.5 C-86.37235260009766,156.5 -156.5,86.37235260009766 -156.5,0 C-156.5,-86.37235260009766 -86.37235260009766,-156.5 0,-156.5z M0,-156.5 C86.37235260009766,-156.5 156.5,-86.37235260009766 156.5,0 C156.5,86.37235260009766 86.37235260009766,156.5 0,156.5 C-86.37235260009766,156.5 -156.5,86.37235260009766 -156.5,0 C-156.5,-86.37235260009766 -86.37235260009766,-156.5 0,-156.5z"></path><path stroke-linecap="butt" stroke-linejoin="miter" fill-opacity="0" stroke-miterlimit="4" stroke="rgb(6,67,88)" stroke-opacity="1" stroke-width="27" d=" M0,-156.5 C86.37235260009766,-156.5 156.5,-86.37235260009766 156.5,0 C156.5,86.37235260009766 86.37235260009766,156.5 0,156.5 C-86.37235260009766,156.5 -156.5,86.37235260009766 -156.5,0 C-156.5,-86.37235260009766 -86.37235260009766,-156.5 0,-156.5z M0,-156.5 C86.37235260009766,-156.5 156.5,-86.37235260009766 156.5,0 C156.5,86.37235260009766 86.37235260009766,156.5 0,156.5 C-86.37235260009766,156.5 -156.5,86.37235260009766 -156.5,0 C-156.5,-86.37235260009766 -86.37235260009766,-156.5 0,-156.5z M0,-156.5 C86.37235260009766,-156.5 156.5,-86.37235260009766 156.5,0 C156.5,86.37235260009766 86.37235260009766,156.5 0,156.5 C-86.37235260009766,156.5 -156.5,86.37235260009766 -156.5,0 C-156.5,-86.37235260009766 -86.37235260009766,-156.5 0,-156.5z M0,-156.5 C86.37235260009766,-156.5 156.5,-86.37235260009766 156.5,0 C156.5,86.37235260009766 86.37235260009766,156.5 0,156.5 C-86.37235260009766,156.5 -156.5,86.37235260009766 -156.5,0 C-156.5,-86.37235260009766 -86.37235260009766,-156.5 0,-156.5z"></path></g><g opacity="1" transform="matrix(1,0,0,1,0,0)"><path fill="rgb(6,67,88)" fill-opacity="1" d=" M3,111 C3,111 3,131 3,131 C3,132.65570068359375 1.6556999683380127,134 0,134 C0,134 0,134 0,134 C-1.6556999683380127,134 -3,132.65570068359375 -3,131 C-3,131 -3,111 -3,111 C-3,109.34429931640625 -1.6556999683380127,108 0,108 C0,108 0,108 0,108 C1.6556999683380127,108 3,109.34429931640625 3,111z M3,111 C3,111 3,131 3,131 C3,132.65570068359375 1.6556999683380127,134 0,134 C0,134 0,134 0,134 C-1.6556999683380127,134 -3,132.65570068359375 -3,131 C-3,131 -3,111 -3,111 C-3,109.34429931640625 -1.6556999683380127,108 0,108 C0,108 0,108 0,108 C1.6556999683380127,108 3,109.34429931640625 3,111z M3,111 C3,111 3,131 3,131 C3,132.65570068359375 1.6556999683380127,134 0,134 C0,134 0,134 0,134 C-1.6556999683380127,134 -3,132.65570068359375 -3,131 C-3,131 -3,111 -3,111 C-3,109.34429931640625 -1.6556999683380127,108 0,108 C0,108 0,108 0,108 C1.6556999683380127,108 3,109.34429931640625 3,111z M3,111 C3,111 3,131 3,131 C3,132.65570068359375 1.6556999683380127,134 0,134 C0,134 0,134 0,134 C-1.6556999683380127,134 -3,132.65570068359375 -3,131 C-3,131 -3,111 -3,111 C-3,109.34429931640625 -1.6556999683380127,108 0,108 C0,108 0,108 0,108 C1.6556999683380127,108 3,109.34429931640625 3,111z M111,-3 C111,-3 131,-3 131,-3 C132.66,-3 134,-1.66 134,0 C134,0 134,0 134,0 C134,1.66 132.66,3 131,3 C131,3 111,3 111,3 C109.34,3 108,1.66 108,0 C108,0 108,0 108,0 C108,-1.66 109.34,-3 111,-3z M111,-3 C111,-3 131,-3 131,-3 C132.66,-3 134,-1.66 134,0 C134,0 134,0 134,0 C134,1.66 132.66,3 131,3 C131,3 111,3 111,3 C109.34,3 108,1.66 108,0 C108,0 108,0 108,0 C108,-1.66 109.34,-3 111,-3z M-3,-111 C-3,-111 -3,-131 -3,-131 C-3,-132.66 -1.66,-134 0,-134 C0,-134 0,-134 0,-134 C1.66,-134 3,-132.66 3,-131 C3,-131 3,-111 3,-111 C3,-109.34 1.66,-108 0,-108 C0,-108 0,-108 0,-108 C-1.66,-108 -3,-109.34 -3,-111z M-3,-111 C-3,-111 -3,-131 -3,-131 C-3,-132.66 -1.66,-134 0,-134 C0,-134 0,-134 0,-134 C1.66,-134 3,-132.66 3,-131 C3,-131 3,-111 3,-111 C3,-109.34 1.66,-108 0,-108 C0,-108 0,-108 0,-108 C-1.66,-108 -3,-109.34 -3,-111z M-111,3 C-111,3 -131,3 -131,3 C-132.66,3 -134,1.66 -134,0 C-134,0 -134,0 -134,0 C-134,-1.66 -132.66,-3 -131,-3 C-131,-3 -111,-3 -111,-3 C-109.34,-3 -108,-1.66 -108,0 C-108,0 -108,0 -108,0 C-108,1.66 -109.34,3 -111,3z M-111,3 C-111,3 -131,3 -131,3 C-132.66,3 -134,1.66 -134,0 C-134,0 -134,0 -134,0 C-134,-1.66 -132.66,-3 -131,-3 C-131,-3 -111,-3 -111,-3 C-109.34,-3 -108,-1.66 -108,0 C-108,0 -108,0 -108,0 C-108,1.66 -109.34,3 -111,3z M3,111 C3,111 3,131 3,131 C3,132.65570068359375 1.6556999683380127,134 0,134 C0,134 0,134 0,134 C-1.6556999683380127,134 -3,132.65570068359375 -3,131 C-3,131 -3,111 -3,111 C-3,109.34429931640625 -1.6556999683380127,108 0,108 C0,108 0,108 0,108 C1.6556999683380127,108 3,109.34429931640625 3,111z M3,111 C3,111 3,131 3,131 C3,132.65570068359375 1.6556999683380127,134 0,134 C0,134 0,134 0,134 C-1.6556999683380127,134 -3,132.65570068359375 -3,131 C-3,131 -3,111 -3,111 C-3,109.34429931640625 -1.6556999683380127,108 0,108 C0,108 0,108 0,108 C1.6556999683380127,108 3,109.34429931640625 3,111z"></path><g opacity="1" transform="matrix(0,-1,1,0,0,0)"></g><g opacity="1" transform="matrix(-1,0,0,-1,0,0)"></g><g opacity="1" transform="matrix(0,1,-1,0,0,0)"></g><g opacity="1" transform="matrix(1,0,0,1,0,0)"></g></g><g opacity="1" transform="matrix(1,0,0,1,0,0)"><g opacity="1" transform="matrix(0.8660253882408142,-0.5,0.5,0.8660253882408142,0,0)"><path fill="rgb(6,67,88)" fill-opacity="1" d=" M2,113 C2,113 2,127 2,127 C2,128.1038055419922 1.1038000583648682,129 0,129 C0,129 0,129 0,129 C-1.1038000583648682,129 -2,128.1038055419922 -2,127 C-2,127 -2,113 -2,113 C-2,111.89620208740234 -1.1038000583648682,111 0,111 C0,111 0,111 0,111 C1.1038000583648682,111 2,111.89620208740234 2,113z M2,113 C2,113 2,127 2,127 C2,128.1038055419922 1.1038000583648682,129 0,129 C0,129 0,129 0,129 C-1.1038000583648682,129 -2,128.1038055419922 -2,127 C-2,127 -2,113 -2,113 C-2,111.89620208740234 -1.1038000583648682,111 0,111 C0,111 0,111 0,111 C1.1038000583648682,111 2,111.89620208740234 2,113z M2,113 C2,113 2,127 2,127 C2,128.1038055419922 1.1038000583648682,129 0,129 C0,129 0,129 0,129 C-1.1038000583648682,129 -2,128.1038055419922 -2,127 C-2,127 -2,113 -2,113 C-2,111.89620208740234 -1.1038000583648682,111 0,111 C0,111 0,111 0,111 C1.1038000583648682,111 2,111.89620208740234 2,113z"></path></g><g opacity="1" transform="matrix(0.5,-0.8660253882408142,0.8660253882408142,0.5,0,0)"><path fill="rgb(6,67,88)" fill-opacity="1" d=" M2,113 C2,113 2,127 2,127 C2,128.1038055419922 1.1038000583648682,129 0,129 C0,129 0,129 0,129 C-1.1038000583648682,129 -2,128.1038055419922 -2,127 C-2,127 -2,113 -2,113 C-2,111.89620208740234 -1.1038000583648682,111 0,111 C0,111 0,111 0,111 C1.1038000583648682,111 2,111.89620208740234 2,113z M2,113 C2,113 2,127 2,127 C2,128.1038055419922 1.1038000583648682,129 0,129 C0,129 0,129 0,129 C-1.1038000583648682,129 -2,128.1038055419922 -2,127 C-2,127 -2,113 -2,113 C-2,111.89620208740234 -1.1038000583648682,111 0,111 C0,111 0,111 0,111 C1.1038000583648682,111 2,111.89620208740234 2,113z M2,113 C2,113 2,127 2,127 C2,128.1038055419922 1.1038000583648682,129 0,129 C0,129 0,129 0,129 C-1.1038000583648682,129 -2,128.1038055419922 -2,127 C-2,127 -2,113 -2,113 C-2,111.89620208740234 -1.1038000583648682,111 0,111 C0,111 0,111 0,111 C1.1038000583648682,111 2,111.89620208740234 2,113z"></path></g><g opacity="1" transform="matrix(0,-1,1,0,0,0)"><path fill="rgb(6,67,88)" fill-opacity="1" d=" M2,113 C2,113 2,127 2,127 C2,128.1038055419922 1.1038000583648682,129 0,129 C0,129 0,129 0,129 C-1.1038000583648682,129 -2,128.1038055419922 -2,127 C-2,127 -2,113 -2,113 C-2,111.89620208740234 -1.1038000583648682,111 0,111 C0,111 0,111 0,111 C1.1038000583648682,111 2,111.89620208740234 2,113z M2,113 C2,113 2,127 2,127 C2,128.1038055419922 1.1038000583648682,129 0,129 C0,129 0,129 0,129 C-1.1038000583648682,129 -2,128.1038055419922 -2,127 C-2,127 -2,113 -2,113 C-2,111.89620208740234 -1.1038000583648682,111 0,111 C0,111 0,111 0,111 C1.1038000583648682,111 2,111.89620208740234 2,113z M2,113 C2,113 2,127 2,127 C2,128.1038055419922 1.1038000583648682,129 0,129 C0,129 0,129 0,129 C-1.1038000583648682,129 -2,128.1038055419922 -2,127 C-2,127 -2,113 -2,113 C-2,111.89620208740234 -1.1038000583648682,111 0,111 C0,111 0,111 0,111 C1.1038000583648682,111 2,111.89620208740234 2,113z"></path></g><g opacity="1" transform="matrix(-0.5,-0.8660253882408142,0.8660253882408142,-0.5,0,0)"><path fill="rgb(6,67,88)" fill-opacity="1" d=" M2,113 C2,113 2,127 2,127 C2,128.1038055419922 1.1038000583648682,129 0,129 C0,129 0,129 0,129 C-1.1038000583648682,129 -2,128.1038055419922 -2,127 C-2,127 -2,113 -2,113 C-2,111.89620208740234 -1.1038000583648682,111 0,111 C0,111 0,111 0,111 C1.1038000583648682,111 2,111.89620208740234 2,113z M2,113 C2,113 2,127 2,127 C2,128.1038055419922 1.1038000583648682,129 0,129 C0,129 0,129 0,129 C-1.1038000583648682,129 -2,128.1038055419922 -2,127 C-2,127 -2,113 -2,113 C-2,111.89620208740234 -1.1038000583648682,111 0,111 C0,111 0,111 0,111 C1.1038000583648682,111 2,111.89620208740234 2,113z M2,113 C2,113 2,127 2,127 C2,128.1038055419922 1.1038000583648682,129 0,129 C0,129 0,129 0,129 C-1.1038000583648682,129 -2,128.1038055419922 -2,127 C-2,127 -2,113 -2,113 C-2,111.89620208740234 -1.1038000583648682,111 0,111 C0,111 0,111 0,111 C1.1038000583648682,111 2,111.89620208740234 2,113z"></path></g><g opacity="1" transform="matrix(-0.8660253882408142,-0.5,0.5,-0.8660253882408142,0,0)"><path fill="rgb(6,67,88)" fill-opacity="1" d=" M2,113 C2,113 2,127 2,127 C2,128.1038055419922 1.1038000583648682,129 0,129 C0,129 0,129 0,129 C-1.1038000583648682,129 -2,128.1038055419922 -2,127 C-2,127 -2,113 -2,113 C-2,111.89620208740234 -1.1038000583648682,111 0,111 C0,111 0,111 0,111 C1.1038000583648682,111 2,111.89620208740234 2,113z M2,113 C2,113 2,127 2,127 C2,128.1038055419922 1.1038000583648682,129 0,129 C0,129 0,129 0,129 C-1.1038000583648682,129 -2,128.1038055419922 -2,127 C-2,127 -2,113 -2,113 C-2,111.89620208740234 -1.1038000583648682,111 0,111 C0,111 0,111 0,111 C1.1038000583648682,111 2,111.89620208740234 2,113z M2,113 C2,113 2,127 2,127 C2,128.1038055419922 1.1038000583648682,129 0,129 C0,129 0,129 0,129 C-1.1038000583648682,129 -2,128.1038055419922 -2,127 C-2,127 -2,113 -2,113 C-2,111.89620208740234 -1.1038000583648682,111 0,111 C0,111 0,111 0,111 C1.1038000583648682,111 2,111.89620208740234 2,113z"></path></g><g opacity="1" transform="matrix(-1,0,0,-1,0,0)"><path fill="rgb(6,67,88)" fill-opacity="1" d=" M2,113 C2,113 2,127 2,127 C2,128.1038055419922 1.1038000583648682,129 0,129 C0,129 0,129 0,129 C-1.1038000583648682,129 -2,128.1038055419922 -2,127 C-2,127 -2,113 -2,113 C-2,111.89620208740234 -1.1038000583648682,111 0,111 C0,111 0,111 0,111 C1.1038000583648682,111 2,111.89620208740234 2,113z M2,113 C2,113 2,127 2,127 C2,128.1038055419922 1.1038000583648682,129 0,129 C0,129 0,129 0,129 C-1.1038000583648682,129 -2,128.1038055419922 -2,127 C-2,127 -2,113 -2,113 C-2,111.89620208740234 -1.1038000583648682,111 0,111 C0,111 0,111 0,111 C1.1038000583648682,111 2,111.89620208740234 2,113z M2,113 C2,113 2,127 2,127 C2,128.1038055419922 1.1038000583648682,129 0,129 C0,129 0,129 0,129 C-1.1038000583648682,129 -2,128.1038055419922 -2,127 C-2,127 -2,113 -2,113 C-2,111.89620208740234 -1.1038000583648682,111 0,111 C0,111 0,111 0,111 C1.1038000583648682,111 2,111.89620208740234 2,113z"></path></g><g opacity="1" transform="matrix(-0.8660253882408142,0.5,-0.5,-0.8660253882408142,0,0)"><path fill="rgb(6,67,88)" fill-opacity="1" d=" M2,113 C2,113 2,127 2,127 C2,128.1038055419922 1.1038000583648682,129 0,129 C0,129 0,129 0,129 C-1.1038000583648682,129 -2,128.1038055419922 -2,127 C-2,127 -2,113 -2,113 C-2,111.89620208740234 -1.1038000583648682,111 0,111 C0,111 0,111 0,111 C1.1038000583648682,111 2,111.89620208740234 2,113z M2,113 C2,113 2,127 2,127 C2,128.1038055419922 1.1038000583648682,129 0,129 C0,129 0,129 0,129 C-1.1038000583648682,129 -2,128.1038055419922 -2,127 C-2,127 -2,113 -2,113 C-2,111.89620208740234 -1.1038000583648682,111 0,111 C0,111 0,111 0,111 C1.1038000583648682,111 2,111.89620208740234 2,113z M2,113 C2,113 2,127 2,127 C2,128.1038055419922 1.1038000583648682,129 0,129 C0,129 0,129 0,129 C-1.1038000583648682,129 -2,128.1038055419922 -2,127 C-2,127 -2,113 -2,113 C-2,111.89620208740234 -1.1038000583648682,111 0,111 C0,111 0,111 0,111 C1.1038000583648682,111 2,111.89620208740234 2,113z"></path></g><g opacity="1" transform="matrix(-0.5,0.8660253882408142,-0.8660253882408142,-0.5,0,0)"><path fill="rgb(6,67,88)" fill-opacity="1" d=" M2,113 C2,113 2,127 2,127 C2,128.1038055419922 1.1038000583648682,129 0,129 C0,129 0,129 0,129 C-1.1038000583648682,129 -2,128.1038055419922 -2,127 C-2,127 -2,113 -2,113 C-2,111.89620208740234 -1.1038000583648682,111 0,111 C0,111 0,111 0,111 C1.1038000583648682,111 2,111.89620208740234 2,113z M2,113 C2,113 2,127 2,127 C2,128.1038055419922 1.1038000583648682,129 0,129 C0,129 0,129 0,129 C-1.1038000583648682,129 -2,128.1038055419922 -2,127 C-2,127 -2,113 -2,113 C-2,111.89620208740234 -1.1038000583648682,111 0,111 C0,111 0,111 0,111 C1.1038000583648682,111 2,111.89620208740234 2,113z M2,113 C2,113 2,127 2,127 C2,128.1038055419922 1.1038000583648682,129 0,129 C0,129 0,129 0,129 C-1.1038000583648682,129 -2,128.1038055419922 -2,127 C-2,127 -2,113 -2,113 C-2,111.89620208740234 -1.1038000583648682,111 0,111 C0,111 0,111 0,111 C1.1038000583648682,111 2,111.89620208740234 2,113z"></path></g><g opacity="1" transform="matrix(0,1,-1,0,0,0)"><path fill="rgb(6,67,88)" fill-opacity="1" d=" M2,113 C2,113 2,127 2,127 C2,128.1038055419922 1.1038000583648682,129 0,129 C0,129 0,129 0,129 C-1.1038000583648682,129 -2,128.1038055419922 -2,127 C-2,127 -2,113 -2,113 C-2,111.89620208740234 -1.1038000583648682,111 0,111 C0,111 0,111 0,111 C1.1038000583648682,111 2,111.89620208740234 2,113z M2,113 C2,113 2,127 2,127 C2,128.1038055419922 1.1038000583648682,129 0,129 C0,129 0,129 0,129 C-1.1038000583648682,129 -2,128.1038055419922 -2,127 C-2,127 -2,113 -2,113 C-2,111.89620208740234 -1.1038000583648682,111 0,111 C0,111 0,111 0,111 C1.1038000583648682,111 2,111.89620208740234 2,113z M2,113 C2,113 2,127 2,127 C2,128.1038055419922 1.1038000583648682,129 0,129 C0,129 0,129 0,129 C-1.1038000583648682,129 -2,128.1038055419922 -2,127 C-2,127 -2,113 -2,113 C-2,111.89620208740234 -1.1038000583648682,111 0,111 C0,111 0,111 0,111 C1.1038000583648682,111 2,111.89620208740234 2,113z"></path></g><g opacity="1" transform="matrix(0.5,0.8660253882408142,-0.8660253882408142,0.5,0,0)"><path fill="rgb(6,67,88)" fill-opacity="1" d=" M2,113 C2,113 2,127 2,127 C2,128.1038055419922 1.1038000583648682,129 0,129 C0,129 0,129 0,129 C-1.1038000583648682,129 -2,128.1038055419922 -2,127 C-2,127 -2,113 -2,113 C-2,111.89620208740234 -1.1038000583648682,111 0,111 C0,111 0,111 0,111 C1.1038000583648682,111 2,111.89620208740234 2,113z M2,113 C2,113 2,127 2,127 C2,128.1038055419922 1.1038000583648682,129 0,129 C0,129 0,129 0,129 C-1.1038000583648682,129 -2,128.1038055419922 -2,127 C-2,127 -2,113 -2,113 C-2,111.89620208740234 -1.1038000583648682,111 0,111 C0,111 0,111 0,111 C1.1038000583648682,111 2,111.89620208740234 2,113z M2,113 C2,113 2,127 2,127 C2,128.1038055419922 1.1038000583648682,129 0,129 C0,129 0,129 0,129 C-1.1038000583648682,129 -2,128.1038055419922 -2,127 C-2,127 -2,113 -2,113 C-2,111.89620208740234 -1.1038000583648682,111 0,111 C0,111 0,111 0,111 C1.1038000583648682,111 2,111.89620208740234 2,113z"></path></g><g opacity="1" transform="matrix(0.8660253882408142,0.5,-0.5,0.8660253882408142,0,0)"><path fill="rgb(6,67,88)" fill-opacity="1" d=" M2,113 C2,113 2,127 2,127 C2,128.1038055419922 1.1038000583648682,129 0,129 C0,129 0,129 0,129 C-1.1038000583648682,129 -2,128.1038055419922 -2,127 C-2,127 -2,113 -2,113 C-2,111.89620208740234 -1.1038000583648682,111 0,111 C0,111 0,111 0,111 C1.1038000583648682,111 2,111.89620208740234 2,113z M2,113 C2,113 2,127 2,127 C2,128.1038055419922 1.1038000583648682,129 0,129 C0,129 0,129 0,129 C-1.1038000583648682,129 -2,128.1038055419922 -2,127 C-2,127 -2,113 -2,113 C-2,111.89620208740234 -1.1038000583648682,111 0,111 C0,111 0,111 0,111 C1.1038000583648682,111 2,111.89620208740234 2,113z M2,113 C2,113 2,127 2,127 C2,128.1038055419922 1.1038000583648682,129 0,129 C0,129 0,129 0,129 C-1.1038000583648682,129 -2,128.1038055419922 -2,127 C-2,127 -2,113 -2,113 C-2,111.89620208740234 -1.1038000583648682,111 0,111 C0,111 0,111 0,111 C1.1038000583648682,111 2,111.89620208740234 2,113z"></path></g><g opacity="1" transform="matrix(1,0,0,1,0,0)"><path fill="rgb(6,67,88)" fill-opacity="1" d=" M2,113 C2,113 2,127 2,127 C2,128.1038055419922 1.1038000583648682,129 0,129 C0,129 0,129 0,129 C-1.1038000583648682,129 -2,128.1038055419922 -2,127 C-2,127 -2,113 -2,113 C-2,111.89620208740234 -1.1038000583648682,111 0,111 C0,111 0,111 0,111 C1.1038000583648682,111 2,111.89620208740234 2,113z M2,113 C2,113 2,127 2,127 C2,128.1038055419922 1.1038000583648682,129 0,129 C0,129 0,129 0,129 C-1.1038000583648682,129 -2,128.1038055419922 -2,127 C-2,127 -2,113 -2,113 C-2,111.89620208740234 -1.1038000583648682,111 0,111 C0,111 0,111 0,111 C1.1038000583648682,111 2,111.89620208740234 2,113z M2,113 C2,113 2,127 2,127 C2,128.1038055419922 1.1038000583648682,129 0,129 C0,129 0,129 0,129 C-1.1038000583648682,129 -2,128.1038055419922 -2,127 C-2,127 -2,113 -2,113 C-2,111.89620208740234 -1.1038000583648682,111 0,111 C0,111 0,111 0,111 C1.1038000583648682,111 2,111.89620208740234 2,113z"></path></g></g></g><g transform="matrix(0.5533915758132935,0.8329212665557861,-0.974517822265625,0.647468090057373,337.5160217285156,275.0744323730469)" opacity="1" style="display: block;"><path fill="rgb(219,166,124)" fill-opacity="1" d=" M8,53.5 C8,57.917999267578125 4.418000221252441,61.5 0,61.5 C-4.418000221252441,61.5 -8,57.917999267578125 -8,53.5 C-8,53.5 -4.418000221252441,-61.5 0,-61.5 C4.418000221252441,-61.5 8,53.5 8,53.5z"></path></g><g transform="matrix(0.728968620300293,-0.6845471262931824,0.6845471262931824,0.728968620300293,262.6210021972656,260.1954040527344)" opacity="1" style="display: block;"><g opacity="1" transform="matrix(1,0,0,1,0,0)"><path stroke-linecap="butt" stroke-linejoin="miter" fill-opacity="0" stroke-miterlimit="4" stroke="rgb(146,44,32)" stroke-opacity="1" stroke-width="4" d=" M0,83 C6.070899963378906,83 11,87.9291000366211 11,94 C11,100.0708999633789 6.070899963378906,105 0,105 C-6.070899963378906,105 -11,100.0708999633789 -11,94 C-11,87.9291000366211 -6.070899963378906,83 0,83z"></path></g><g opacity="1" transform="matrix(1,0,0,1,0,0)"><path fill="rgb(145,42,31)" fill-opacity="1" d=" M1,-66.5 C1,-66.5 1,82.5 1,82.5 C1,82.5 -1,82.5 -1,82.5 C-1,82.5 -1,-66.5 -1,-66.5 C-1,-66.5 1,-66.5 1,-66.5z"></path></g><g opacity="1" transform="matrix(1,0,0,1,0.23799999058246613,22.322998046875)"><path stroke-linecap="butt" stroke-linejoin="miter" fill-opacity="0" stroke-miterlimit="4" stroke="rgb(165,92,84)" stroke-opacity="1" stroke-width="6" d=" M0,23.5 C4.691150188446045,23.5 8.5,27.308849334716797 8.5,32 C8.5,36.6911506652832 4.691150188446045,40.5 0,40.5 C-4.691150188446045,40.5 -8.5,36.6911506652832 -8.5,32 C-8.5,27.308849334716797 -4.691150188446045,23.5 0,23.5z"></path></g></g></g></svg>