<svg xmlns="http://www.w3.org/2000/svg" xmlns:xlink="http://www.w3.org/1999/xlink" viewBox="0 0 400 400" width="400" height="400" preserveAspectRatio="xMidYMid meet" style="width: 100%; height: 100%; transform: translate3d(0px, 0px, 0px); content-visibility: visible;"><defs><clipPath id="__lottie_element_17"><rect width="400" height="400" x="0" y="0"></rect></clipPath></defs><g clip-path="url(#__lottie_element_17)"><g transform="matrix(1,0,0,1,200,200)" opacity="1" style="display: block;"><g opacity="1" transform="matrix(1,0,0,1,0,0)"><path fill="rgb(73,73,73)" fill-opacity="1" d=" M-0.004999999888241291,-71.25499725341797 C-53.54499816894531,-71.25499725341797 -101.51499938964844,-42.689998626708984 -120,0 C-101.51499938964844,42.689998626708984 -53.54499816894531,71.25499725341797 -0.004999999888241291,71.25499725341797 C53.53499984741211,71.25499725341797 101.51000213623047,42.689998626708984 120,0 C101.51000213623047,-42.69499969482422 53.540000915527344,-71.25499725341797 -0.004999999888241291,-71.25499725341797z"></path></g></g><g transform="matrix(1,0,0,1,0,0)" opacity="1" style="display: block;"><g opacity="1" transform="matrix(1,0,0,1,200,200)"><g opacity="1" transform="matrix(1,0,0,1,0,0)"><path fill="rgb(220,220,220)" fill-opacity="1" d=" M-0.004999999888241291,-71.25499725341797 C-53.54499816894531,-71.25499725341797 -101.51499938964844,-42.689998626708984 -120,0 C-101.51499938964844,42.689998626708984 -53.54499816894531,71.25499725341797 -0.004999999888241291,71.25499725341797 C53.53499984741211,71.25499725341797 101.51000213623047,42.689998626708984 120,0 C101.51000213623047,-42.69499969482422 53.540000915527344,-71.25499725341797 -0.004999999888241291,-71.25499725341797z"></path></g></g><g opacity="1" transform="matrix(1,0,0,1,200,200)"><g opacity="1" transform="matrix(1,0,0,1,0,0)"><path fill="rgb(73,170,238)" fill-opacity="1" d=" M-0.004999999888241291,51.540000915527344 C-28.420000076293945,51.540000915527344 -51.54499816894531,28.420000076293945 -51.54499816894531,0 C-51.54499816894531,-28.420000076293945 -28.424999237060547,-51.54499816894531 -0.004999999888241291,-51.54499816894531 C28.415000915527344,-51.54499816894531 51.540000915527344,-28.420000076293945 51.540000915527344,0 C51.540000915527344,28.420000076293945 28.420000076293945,51.540000915527344 -0.004999999888241291,51.540000915527344z"></path></g></g><g opacity="1" transform="matrix(1,0,0,1,200.00099182128906,199.99899291992188)"><g opacity="1" transform="matrix(1,0,0,1,0,0)"><path fill="rgb(19,128,205)" fill-opacity="1" d=" M43.24100112915039,0 C43.24100112915039,23.844999313354492 23.840999603271484,43.2400016784668 -0.004000000189989805,43.2400016784668 C-23.849000930786133,43.2400016784668 -43.24399948120117,23.84000015258789 -43.24399948120117,0 C-43.24399948120117,-23.84000015258789 -23.849000930786133,-43.244998931884766 -0.004000000189989805,-43.244998931884766 C23.840999603271484,-43.244998931884766 43.24100112915039,-23.844999313354492 43.24100112915039,0z"></path></g></g><g opacity="1" transform="matrix(1,0,0,1,200,200)"><g opacity="1" transform="matrix(1,0,0,1,0,0)"><path fill="rgb(229,229,228)" fill-opacity="1" d=" M-11.279999732971191,-14.895000457763672 C-11.279999732971191,-8.675000190734863 -16.34000015258789,-3.615000009536743 -22.559999465942383,-3.615000009536743 C-28.780000686645508,-3.615000009536743 -33.84000015258789,-8.675000190734863 -33.84000015258789,-14.895000457763672 C-33.84000015258789,-21.114999771118164 -28.780000686645508,-26.174999237060547 -22.559999465942383,-26.174999237060547 C-16.34000015258789,-26.174999237060547 -11.279999732971191,-21.114999771118164 -11.279999732971191,-14.895000457763672z"></path></g></g></g><g transform="matrix(1,0,0,1,199.99900817871094,199.99900817871094)" opacity="1" style="display: block;"><g opacity="1" transform="matrix(1,0,0,1,0,0)"><path stroke-linecap="round" stroke-linejoin="miter" fill-opacity="0" stroke-miterlimit="4" stroke="rgb(111,110,110)" stroke-opacity="1" stroke-width="12" d="M0 0"></path></g></g><g transform="matrix(1,0,0,1,199.99900817871094,199.99900817871094)" opacity="1" style="display: block;"><g opacity="1" transform="matrix(1,0,0,1,0,0)"><path stroke-linecap="round" stroke-linejoin="miter" fill-opacity="0" stroke-miterlimit="4" stroke="rgb(171,171,171)" stroke-opacity="1" stroke-width="12" d="M0 0"></path></g></g></g></svg>