<svg xmlns="http://www.w3.org/2000/svg" xmlns:xlink="http://www.w3.org/1999/xlink" viewBox="0 0 512 512" width="512" height="512" preserveAspectRatio="xMidYMid meet" style="width: 100%; height: 100%; transform: translate3d(0px, 0px, 0px); content-visibility: visible;"><defs><clipPath id="__lottie_element_1586"><rect width="512" height="512" x="0" y="0"></rect></clipPath></defs><g clip-path="url(#__lottie_element_1586)"><g transform="matrix(0.9599999785423279,0,0,0.9599999785423279,257.44000244140625,255.52000427246094)" opacity="1" style="display: block;"><g opacity="1" transform="matrix(1,0,0,1,-1.5,0.5)"><path stroke-linecap="round" stroke-linejoin="miter" fill-opacity="0" stroke-miterlimit="4" stroke="rgb(197,231,249)" stroke-opacity="1" stroke-width="12" d=" M0,-161 C88.85590362548828,-161 161,-88.85590362548828 161,0 C161,88.85590362548828 88.85590362548828,161 0,161 C-88.85590362548828,161 -161,88.85590362548828 -161,0 C-161,-88.85590362548828 -88.85590362548828,-161 0,-161z"></path></g></g><g transform="matrix(1,0,0,1,120.75,96.75)" opacity="1" style="display: block;"><g opacity="1" transform="matrix(1,0,0,1,135.25,170.75)"><path fill="rgb(88,185,240)" fill-opacity="1" d=" M135,-121.5 C135,-130.33599853515625 127.83699798583984,-137.5 119,-137.5 C119,-137.5 80,-137.5 80,-137.5 C75.58200073242188,-137.5 72,-133.91799926757812 72,-129.5 C72,-129.5 72,-100.5 72,-100.5 C72,-94.97699737548828 67.52200317382812,-90.5 62,-90.5 C62,-90.5 -62,-90.5 -62,-90.5 C-67.52300262451172,-90.5 -72,-94.97699737548828 -72,-100.5 C-72,-100.5 -72,-129.5 -72,-129.5 C-72,-133.91799926757812 -75.58200073242188,-137.5 -80,-137.5 C-80,-137.5 -119,-137.5 -119,-137.5 C-127.83599853515625,-137.5 -135,-130.33599853515625 -135,-121.5 C-135,-121.5 -135,50.137001037597656 -135,50.137001037597656 C-111.7959976196289,101.59400177001953 -60.013999938964844,137.5 0,137.5 C60.013999938964844,137.5 111.7969970703125,101.59400177001953 135,50.137001037597656 C135,50.137001037597656 135,-121.5 135,-121.5z"></path></g><g opacity="1" transform="matrix(1,0,0,1,135.25,35.25)"><path fill="rgb(162,219,251)" fill-opacity="1" d=" M50,-15 C50,-15 35,-15 35,-15 C35,-15 35,-23 35,-23 C35,-29.600000381469727 29.600000381469727,-35 23,-35 C23,-35 -23,-35 -23,-35 C-29.600000381469727,-35 -35,-29.600000381469727 -35,-23 C-35,-23 -35,-15 -35,-15 C-35,-15 -50,-15 -50,-15 C-56.599998474121094,-15 -62,-9.600000381469727 -62,-3 C-62,-3 -62,23 -62,23 C-62,29.600000381469727 -56.599998474121094,35 -50,35 C-50,35 50,35 50,35 C56.599998474121094,35 62,29.600000381469727 62,23 C62,23 62,-3 62,-3 C62,-9.600000381469727 56.599998474121094,-15 50,-15z M0,19 C-7.73199987411499,19 -14,12.732000350952148 -14,5 C-14,-2.7320001125335693 -7.73199987411499,-9 0,-9 C7.73199987411499,-9 14,-2.7320001125335693 14,5 C14,12.732000350952148 7.73199987411499,19 0,19z"></path></g></g><g transform="matrix(1,0,0,1,142.5,283)" opacity="1" style="display: block;"><g opacity="1" transform="matrix(1,0,0,1,41,41)"><path stroke-linecap="butt" stroke-linejoin="miter" fill-opacity="0" stroke-miterlimit="10" stroke="rgb(255,237,166)" stroke-opacity="1" stroke-width="10" d=" M0.5630000233650208,-15.989999771118164 C9.137999534606934,-15.694000244140625 16,-8.64900016784668 16,0 C16,0 16,0 16,0 C16,8.836999893188477 8.836000442504883,16 0,16 C-8.836000442504883,16 -16,8.836999893188477 -16,0 C-16,-8.836999893188477 -8.836000442504883,-16 0,-16 C0.18799999356269836,-16 0.37599998712539673,-15.996999740600586 0.5630000233650208,-15.989999771118164"></path></g></g><g transform="matrix(1,0,0,1,255.99998474121094,256)" opacity="1" style="display: block;"><g opacity="1" transform="matrix(1,0,0,1,0,0)"><path stroke-linecap="butt" stroke-linejoin="miter" fill-opacity="0" stroke-miterlimit="4" stroke="rgb(255,255,255)" stroke-opacity="1" stroke-width="14" d=" M-17.125,-4 C-17.125,-4 91,-4 91,-4 C91,-4 -17.125,-4 -17.125,-4z"></path></g></g><g transform="matrix(1,0,0,1,255.99998474121094,328)" opacity="1" style="display: block;"><g opacity="1" transform="matrix(1,0,0,1,0,0)"><path stroke-linecap="butt" stroke-linejoin="miter" fill-opacity="0" stroke-miterlimit="4" stroke="rgb(255,238,166)" stroke-opacity="1" stroke-width="14" d=" M-17.125,-4 C-17.125,-4 91,-4 91,-4 C91,-4 -17.125,-4 -17.125,-4z"></path></g></g><g transform="matrix(1,0,0,1,132,207)" opacity="1" style="display: block;"><g opacity="1" transform="matrix(1,0,0,1,53.5,44.75)"><path stroke-linecap="butt" stroke-linejoin="miter" fill-opacity="0" stroke-miterlimit="10" stroke="rgb(255,255,255)" stroke-opacity="1" stroke-width="12" d=" M-23.5,-2.75 C-23.5,-2.75 -6,14.75 -6,14.75 C-6,14.75 23.5,-14.75 23.5,-14.75"></path></g></g></g></svg>