<svg xmlns="http://www.w3.org/2000/svg" xmlns:xlink="http://www.w3.org/1999/xlink" viewBox="0 0 1080 1080" width="1080" height="1080" preserveAspectRatio="xMidYMid meet" style="width: 100%; height: 100%; transform: translate3d(0px, 0px, 0px); content-visibility: visible;"><defs><clipPath id="__lottie_element_2"><rect width="1080" height="1080" x="0" y="0"></rect></clipPath><symbol id="__lottie_element_9"><g><g transform="matrix(1,0,0,1,540,540)" opacity="1" style="display: block;"><g opacity="1" transform="matrix(1,0,0,1,4.5370001792907715,435.96600341796875)"><path fill="rgb(204,49,17)" fill-opacity="1" d=" M354.9075012207031,-73.74400329589844 C354.9075012207031,-73.74400329589844 354.9075012207031,73.74400329589844 354.9075012207031,73.74400329589844 C354.9075012207031,73.74400329589844 -354.9075012207031,73.74400329589844 -354.9075012207031,73.74400329589844 C-354.9075012207031,73.74400329589844 -354.9075012207031,-73.74400329589844 -354.9075012207031,-73.74400329589844 C-354.9075012207031,-73.74400329589844 354.9075012207031,-73.74400329589844 354.9075012207031,-73.74400329589844z"></path></g></g></g></symbol><symbol id="__lottie_element_15"><g><g transform="matrix(1,0,0,1,540,540)" opacity="1" style="display: block;"><g opacity="1" transform="matrix(1,0,0,1,4.5370001792907715,435.96600341796875)"><path fill="rgb(204,49,17)" fill-opacity="1" d=" M354.9075012207031,-73.74400329589844 C354.9075012207031,-73.74400329589844 354.9075012207031,73.74400329589844 354.9075012207031,73.74400329589844 C354.9075012207031,73.74400329589844 -354.9075012207031,73.74400329589844 -354.9075012207031,73.74400329589844 C-354.9075012207031,73.74400329589844 -354.9075012207031,-73.74400329589844 -354.9075012207031,-73.74400329589844 C-354.9075012207031,-73.74400329589844 354.9075012207031,-73.74400329589844 354.9075012207031,-73.74400329589844z"></path></g></g></g></symbol><filter id="__lottie_element_81" filterUnits="objectBoundingBox" x="0%" y="0%" width="100%" height="100%"><feComponentTransfer in="SourceGraphic"><feFuncA type="table" tableValues="1.0 0.0"></feFuncA></feComponentTransfer></filter><mask id="__lottie_element_15_2" mask-type="alpha"><g filter="url(#__lottie_element_81)"><rect width="1080" height="1080" x="0" y="0" fill="#ffffff" opacity="0"></rect><use xlink:href="#__lottie_element_15"></use></g></mask><filter id="__lottie_element_82" filterUnits="objectBoundingBox" x="0%" y="0%" width="100%" height="100%"><feComponentTransfer in="SourceGraphic"><feFuncA type="table" tableValues="1.0 0.0"></feFuncA></feComponentTransfer></filter><mask id="__lottie_element_9_2" mask-type="alpha"><g filter="url(#__lottie_element_82)"><rect width="1080" height="1080" x="0" y="0" fill="#ffffff" opacity="0"></rect><use xlink:href="#__lottie_element_9"></use></g></mask></defs><g clip-path="url(#__lottie_element_2)"><g mask="url(#__lottie_element_9_2)" style="display: block;"><g transform="matrix(8,0,0,8,540,579.1119995117188)" opacity="1"><g opacity="1" transform="matrix(1,0,0,1,0,0)"><path fill="rgb(255,165,131)" fill-opacity="1" d=" M8,14 C3.4130001068115234,-8.079999923706055 -9,2 -4,22 C-4,22 7.688000202178955,51.25 7.688000202178955,51.25 C7.688000202178955,51.25 24.687999725341797,51.25 24.687999725341797,51.25 C24.687999725341797,51.25 8,14 8,14z"></path></g><g opacity="0.5" transform="matrix(1,0,0,1,0,0)"><path fill="rgb(245,103,122)" fill-opacity="1" d=" M24.687999725341797,51.25 C24.687999725341797,51.25 20.687999725341797,51.25 20.687999725341797,51.25 C20.687999725341797,51.25 7.843999862670898,22.513999938964844 7.843999862670898,22.513999938964844 C6.915999889373779,20.459999084472656 7.452000141143799,18.041000366210938 9.15999984741211,16.56999969482422 C9.15999984741211,16.56999969482422 9.15999984741211,16.56999969482422 9.15999984741211,16.56999969482422 C9.15999984741211,16.56999969482422 24.687999725341797,51.25 24.687999725341797,51.25z"></path></g></g></g><g mask="url(#__lottie_element_15_2)" style="display: block;"><g transform="matrix(8,0,0,8,540,579.1119995117188)" opacity="1"><g opacity="1" transform="matrix(1,0,0,1,0,0)"><path fill="rgb(255,101,0)" fill-opacity="1" d=" M-2,49.125 C-2,49.67689895629883 -2.4481000900268555,50.125 -3,50.125 C-3,50.125 -7,50.125 -7,50.125 C-7.5518999099731445,50.125 -8,49.67689895629883 -8,49.125 C-8,49.125 -8,-45 -8,-45 C-8,-45.55189895629883 -7.5518999099731445,-46 -7,-46 C-7,-46 -3,-46 -3,-46 C-2.4481000900268555,-46 -2,-45.55189895629883 -2,-45 C-2,-45 -2,49.125 -2,49.125z"></path></g><g opacity="0.5" transform="matrix(1,0,0,1,0,0)"><path fill="rgb(170,63,9)" fill-opacity="1" d=" M-3,-46 C-2.4481000900268555,-46 -2,-45.55189895629883 -2,-45 C-2,-45 -2,49.125 -2,49.125 C-2,49.67689895629883 -2.4481000900268555,50.125 -3,50.125 C-3,50.125 -3,50.125 -3,50.125 C-3.5518999099731445,50.125 -4,49.67689895629883 -4,49.125 C-4,49.125 -4,-45 -4,-45 C-4,-45.55189895629883 -3.5518999099731445,-46 -3,-46 C-3,-46 -3,-46 -3,-46z"></path></g></g></g><g transform="matrix(8,0,0,8,540,579.1119995117188)" opacity="1" style="display: block;"><g opacity="1" transform="matrix(1,0,0,1,0,0)"><path fill="rgb(255,193,0)" fill-opacity="1" d=" M32,-35 C32,-35 32,-10 32,-10 C32,-8.34000015258789 30.65999984741211,-7 29,-7 C29,-7 -39,-7 -39,-7 C-40.65999984741211,-7 -42,-8.34000015258789 -42,-10 C-42,-10 -42,-35 -42,-35 C-42,-36.65999984741211 -40.65999984741211,-38 -39,-38 C-39,-38 29,-38 29,-38 C30.65999984741211,-38 32,-36.65999984741211 32,-35z"></path></g><g opacity="0.5" transform="matrix(1,0,0,1,0,0)"><path fill="rgb(255,120,0)" fill-opacity="1" d=" M32,-35 C32,-35 32,-10 32,-10 C32,-8.343000411987305 30.656999588012695,-7 29,-7 C29,-7 2,-7 2,-7 C2,-7 2,-7 2,-7 C2,-9.76099967956543 4.238999843597412,-12 7,-12 C7,-12 23,-12 23,-12 C24.656999588012695,-12 26,-13.343000411987305 26,-15 C26,-15 26,-38 26,-38 C26,-38 29,-38 29,-38 C30.656999588012695,-38 32,-36.65700149536133 32,-35z"></path></g></g><g transform="matrix(8,0,0,8,540,579.1119995117188)" opacity="1" style="display: block;"><g opacity="1" transform="matrix(1,0,0,1,0,0)"><path stroke-linecap="round" stroke-linejoin="round" fill-opacity="0" stroke="rgb(209,85,47)" stroke-opacity="1" stroke-width="2" d=" M-29,-29 C-29,-29 -25,-16.75 -25,-16.75 C-25,-16.75 -20,-29 -20,-29"></path></g><g opacity="1" transform="matrix(1,0,0,1,0,0)"><path stroke-linecap="round" stroke-linejoin="round" fill-opacity="0" stroke="rgb(209,85,47)" stroke-opacity="1" stroke-width="2" d=" M-4.333000183105469,-22.875 C-4.333000183105469,-19.492000579833984 -7.019000053405762,-16.75 -10.333000183105469,-16.75 C-13.647000312805176,-16.75 -16.33300018310547,-19.492000579833984 -16.33300018310547,-22.875 C-16.33300018310547,-26.257999420166016 -13.647000312805176,-29 -10.333000183105469,-29 C-7.019000053405762,-29 -4.333000183105469,-26.257999420166016 -4.333000183105469,-22.875z"></path></g><g opacity="1" transform="matrix(1,0,0,1,0,0)"><g opacity="1" transform="matrix(1,0,0,1,0,0)"><path stroke-linecap="round" stroke-linejoin="round" fill-opacity="0" stroke="rgb(209,85,47)" stroke-opacity="1" stroke-width="2" d=" M-0.6669999957084656,-29 C-0.6669999957084656,-29 4.333000183105469,-29 4.333000183105469,-29 C4.333000183105469,-29 9.333000183105469,-29 9.333000183105469,-29"></path></g><g opacity="1" transform="matrix(1,0,0,1,0,0)"><path stroke-linecap="round" stroke-linejoin="round" fill-opacity="0" stroke="rgb(209,85,47)" stroke-opacity="1" stroke-width="2" d=" M4.333000183105469,-17.625 C4.333000183105469,-17.625 4.333000183105469,-29 4.333000183105469,-29"></path></g></g><g opacity="1" transform="matrix(1,0,0,1,0,0)"><g opacity="1" transform="matrix(1,0,0,1,0,0)"><path stroke-linecap="round" stroke-linejoin="round" fill-opacity="0" stroke="rgb(209,85,47)" stroke-opacity="1" stroke-width="2" d=" M20,-29 C20,-29 13,-29 13,-29 C13,-29 13,-22.875 13,-22.875 C13,-22.875 13,-16.75 13,-16.75 C13,-16.75 20,-16.75 20,-16.75"></path></g><g opacity="1" transform="matrix(1,0,0,1,0,0)"><path stroke-linecap="round" stroke-linejoin="round" fill-opacity="0" stroke="rgb(209,85,47)" stroke-opacity="1" stroke-width="2" d=" M19,-22.875 C19,-22.875 13,-22.875 13,-22.875"></path></g></g></g><g transform="matrix(8,0,0,8,540,579.1119995117188)" opacity="1" style="display: block;"><g opacity="1" transform="matrix(1,0,0,1,0,0)"><path fill="rgb(255,165,131)" fill-opacity="1" d=" M-1.5,6 C-1.5,6 -9.5,6 -9.5,6 C-10.880999565124512,6 -12,4.88100004196167 -12,3.5 C-12,3.5 -12,3.5 -12,3.5 C-12,2.11899995803833 -10.880999565124512,1 -9.5,1 C-9.5,1 -1.5,1 -1.5,1 C-0.11900000274181366,1 1,2.11899995803833 1,3.5 C1,3.5 1,3.5 1,3.5 C1,4.88100004196167 -0.11900000274181366,6 -1.5,6z"></path></g><g opacity="1" transform="matrix(1,0,0,1,0,0)"><path fill="rgb(255,165,131)" fill-opacity="1" d=" M-1.5,11 C-1.5,11 -9.5,11 -9.5,11 C-10.880999565124512,11 -12,9.880999565124512 -12,8.5 C-12,8.5 -12,8.5 -12,8.5 C-12,7.11899995803833 -10.880999565124512,6 -9.5,6 C-9.5,6 -1.5,6 -1.5,6 C-0.11900000274181366,6 1,7.11899995803833 1,8.5 C1,8.5 1,8.5 1,8.5 C1,9.880999565124512 -0.11900000274181366,11 -1.5,11z"></path></g><g opacity="1" transform="matrix(1,0,0,1,0,0)"><path fill="rgb(255,165,131)" fill-opacity="1" d=" M-1.5,16 C-1.5,16 -9.5,16 -9.5,16 C-10.880999565124512,16 -12,14.880999565124512 -12,13.5 C-12,13.5 -12,13.5 -12,13.5 C-12,12.119000434875488 -10.880999565124512,11 -9.5,11 C-9.5,11 -1.5,11 -1.5,11 C-0.11900000274181366,11 1,12.119000434875488 1,13.5 C1,13.5 1,13.5 1,13.5 C1,14.880999565124512 -0.11900000274181366,16 -1.5,16z"></path></g><g opacity="1" transform="matrix(1,0,0,1,0,0)"><path fill="rgb(255,165,131)" fill-opacity="1" d=" M-1.5,21 C-1.5,21 -9.5,21 -9.5,21 C-10.880999565124512,21 -12,19.881000518798828 -12,18.5 C-12,18.5 -12,18.5 -12,18.5 C-12,17.118999481201172 -10.880999565124512,16 -9.5,16 C-9.5,16 -1.5,16 -1.5,16 C-0.11900000274181366,16 1,17.118999481201172 1,18.5 C1,18.5 1,18.5 1,18.5 C1,19.881000518798828 -0.11900000274181366,21 -1.5,21z"></path></g><g opacity="0.5" transform="matrix(1,0,0,1,0,0)"><path fill="rgb(245,103,122)" fill-opacity="1" d=" M1,18.5 C1,19.190000534057617 0.7200000286102295,19.81999969482422 0.27000001072883606,20.270000457763672 C-0.18000000715255737,20.719999313354492 -0.8100000023841858,21 -1.5,21 C-1.5,21 -4.5,21 -4.5,21 C-3.809999942779541,21 -3.180000066757202,20.719999313354492 -2.7300000190734863,20.270000457763672 C-2.2799999713897705,19.81999969482422 -2,19.190000534057617 -2,18.5 C-2,17.1200008392334 -3.119999885559082,16 -4.5,16 C-4.5,16 -1.5,16 -1.5,16 C-0.11999999731779099,16 1,17.1200008392334 1,18.5z"></path></g><g opacity="0.5" transform="matrix(1,0,0,1,0,0)"><path fill="rgb(245,103,122)" fill-opacity="1" d=" M1,13.5 C1,14.1899995803833 0.7200000286102295,14.819999694824219 0.27000001072883606,15.270000457763672 C-0.18000000715255737,15.720000267028809 -0.8100000023841858,16 -1.5,16 C-1.5,16 -4.5,16 -4.5,16 C-3.809999942779541,16 -3.180000066757202,15.720000267028809 -2.7300000190734863,15.270000457763672 C-2.2799999713897705,14.819999694824219 -2,14.1899995803833 -2,13.5 C-2,12.119999885559082 -3.119999885559082,11 -4.5,11 C-4.5,11 -1.5,11 -1.5,11 C-0.11999999731779099,11 1,12.119999885559082 1,13.5z"></path></g><g opacity="0.5" transform="matrix(1,0,0,1,0,0)"><path fill="rgb(245,103,122)" fill-opacity="1" d=" M1,8.5 C1,9.1899995803833 0.7200000286102295,9.819999694824219 0.27000001072883606,10.270000457763672 C-0.18000000715255737,10.720000267028809 -0.8100000023841858,11 -1.5,11 C-1.5,11 -4.5,11 -4.5,11 C-3.809999942779541,11 -3.180000066757202,10.720000267028809 -2.7300000190734863,10.270000457763672 C-2.2799999713897705,9.819999694824219 -2,9.1899995803833 -2,8.5 C-2,7.119999885559082 -3.119999885559082,6 -4.5,6 C-4.5,6 -1.5,6 -1.5,6 C-0.11999999731779099,6 1,7.119999885559082 1,8.5z"></path></g><g opacity="0.5" transform="matrix(1,0,0,1,0,0)"><path fill="rgb(232,92,49)" fill-opacity="1" d=" M1,3.5 C1,4.190000057220459 0.7200000286102295,4.820000171661377 0.27000001072883606,5.269999980926514 C-0.18000000715255737,5.71999979019165 -0.8100000023841858,6 -1.5,6 C-1.5,6 -4.5,6 -4.5,6 C-3.809999942779541,6 -3.180000066757202,5.71999979019165 -2.7300000190734863,5.269999980926514 C-2.2799999713897705,4.820000171661377 -2,4.190000057220459 -2,3.5 C-2,2.119999885559082 -3.119999885559082,1 -4.5,1 C-4.5,1 -1.5,1 -1.5,1 C-0.11999999731779099,1 1,2.119999885559082 1,3.5z"></path></g></g><g transform="matrix(8,0,0,8,540,580)" opacity="0.7000000000000001" style="display: block;"><g opacity="1" transform="matrix(1,0,0,1,0,0)"><g opacity="1" transform="matrix(1,0,0,1,0,0)"><path fill="rgb(209,85,47)" fill-opacity="1" d=" M-1.5,16 C-1.5,16 -9.5,16 -9.5,16 C-10.119999885559082,16 -10.6899995803833,16.219999313354492 -11.119999885559082,16.600000381469727 C-10.640000343322754,16.860000610351562 -10.079999923706055,17 -9.5,17 C-9.5,17 -1.5,17 -1.5,17 C-0.9200000166893005,17 -0.36000001430511475,16.860000610351562 0.11999999731779099,16.600000381469727 C-0.3100000023841858,16.219999313354492 -0.8799999952316284,16 -1.5,16z"></path></g></g><g opacity="1" transform="matrix(1,0,0,1,0,0)"><g opacity="1" transform="matrix(1,0,0,1,0,0)"><path fill="rgb(209,85,47)" fill-opacity="1" d=" M-1.5,11 C-1.5,11 -9.5,11 -9.5,11 C-10.119999885559082,11 -10.6899995803833,11.220000267028809 -11.119999885559082,11.600000381469727 C-10.640000343322754,11.859999656677246 -10.079999923706055,12 -9.5,12 C-9.5,12 -1.5,12 -1.5,12 C-0.9200000166893005,12 -0.36000001430511475,11.859999656677246 0.11999999731779099,11.600000381469727 C-0.3100000023841858,11.220000267028809 -0.8799999952316284,11 -1.5,11z"></path></g></g><g opacity="1" transform="matrix(1,0,0,1,0,0)"><g opacity="1" transform="matrix(1,0,0,1,0,0)"><path fill="rgb(209,85,47)" fill-opacity="1" d=" M-1.5,6 C-1.5,6 -9.5,6 -9.5,6 C-10.119999885559082,6 -10.6899995803833,6.21999979019165 -11.119999885559082,6.599999904632568 C-10.640000343322754,6.860000133514404 -10.079999923706055,7 -9.5,7 C-9.5,7 -1.5,7 -1.5,7 C-0.9200000166893005,7 -0.36000001430511475,6.860000133514404 0.11999999731779099,6.599999904632568 C-0.3100000023841858,6.21999979019165 -0.8799999952316284,6 -1.5,6z"></path></g></g><g opacity="1" transform="matrix(1,0,0,1,0,0)"><g opacity="1" transform="matrix(1,0,0,1,0,0)"><path fill="rgb(209,85,47)" fill-opacity="1" d=" M5,6 C5,6.550000190734863 4.550000190734863,7 4,7 C2.2200000286102295,7 1.0099999904632568,6.170000076293945 0.25,5.289999961853027 C0.05000000074505806,5.090000152587891 -0.10000000149011612,4.880000114440918 -0.23999999463558197,4.679999828338623 C-0.9800000190734863,5.260000228881836 -1.8200000524520874,5.630000114440918 -2.6500000953674316,5.940000057220459 C-2.7100000381469727,5.960000038146973 -2.759999990463257,5.989999771118164 -2.819999933242798,6 C-4.269999980926514,6.550000190734863 -5.599999904632568,6.550000190734863 -6.75,6 C-6.849999904632568,5.960000038146973 -6.949999809265137,5.909999847412109 -7.050000190734863,5.860000133514404 C-9.399999618530273,4.53000020980835 -9.960000038146973,1.2999999523162842 -9.989999771118164,1.159999966621399 C-10,1.1200000047683716 -10,1.090000033378601 -10,1.0499999523162842 C-9.84000015258789,1.0199999809265137 -5.670000076293945,1 -5.670000076293945,1 C-6.329999923706055,1.3600000143051147 -7.03000020980835,1.659999966621399 -7.730000019073486,1.8300000429153442 C-7.440000057220459,2.6500000953674316 -6.900000095367432,3.6500000953674316 -6.059999942779541,4.119999885559082 C-5.340000152587891,4.519999980926514 -4.460000038146973,4.510000228881836 -3.369999885559082,4.070000171661377 C-2.2300000190734863,3.6500000953674316 -1.3799999952316284,3.2100000381469727 -0.8199999928474426,2.4200000762939453 C-0.6000000238418579,2.109999895095825 -0.23000000417232513,1.9500000476837158 0.15000000596046448,2.009999990463257 C0.36000001430511475,2.0399999618530273 0.550000011920929,2.140000104904175 0.6899999976158142,2.2899999618530273 C0.7099999785423279,2.299999952316284 0.7200000286102295,2.299999952316284 0.699999988079071,2.309999942779541 C0.8199999928474426,2.4100000858306885 0.8999999761581421,2.5399999618530273 0.949999988079071,2.680000066757202 C0.9800000190734863,2.7699999809265137 1.7799999713897705,5 4,5 C4.550000190734863,5 5,5.449999809265137 5,6z"></path></g></g></g><g transform="matrix(8,0,0,8,540,579.1119995117188)" opacity="1" style="display: block;"><g opacity="1" transform="matrix(1,0,0,1,0,0)"><path fill="rgb(255,165,131)" fill-opacity="1" d=" M5,-3 C2,-3 -2,-3 -2,-3 C-2,-3 -6,1 -9,1 C-9,1 -8,7 -3,5 C-1.8339999914169312,4.566999912261963 -0.7369999885559082,4.038000106811523 0,3 C0,3 1,6 4,6 C4,6 7,18 7,18 C14,11 11,-3 5,-3z"></path></g><g opacity="0.5" transform="matrix(1,0,0,1,0,0)"><path fill="rgb(245,103,122)" fill-opacity="1" d=" M7,18 C7,18 6.925000190734863,17.700000762939453 6.925000190734863,17.700000762939453 C6.541999816894531,16.16900062561035 6.546999931335449,14.545000076293945 7.081999778747559,13.060999870300293 C9.663000106811523,5.9070000648498535 6.784999847412109,-3 2,-3 C2,-3 5,-3 5,-3 C11,-3 14,11 7,18z"></path></g></g><g transform="matrix(8,0,0,8,540,540)" opacity="1" style="display: block;"><g opacity="1" transform="matrix(1,0,0,1,0,0)"><path stroke-linecap="round" stroke-linejoin="round" fill-opacity="0" stroke="rgb(15,93,132)" stroke-opacity="1" stroke-width="2" d=" M37,45 C37,45 -20.5,45 -20.5,45"></path></g><g opacity="1" transform="matrix(1,0,0,1,0,0)"><path stroke-linecap="round" stroke-linejoin="round" fill-opacity="0" stroke="rgb(15,93,132)" stroke-opacity="1" stroke-width="2" d=" M-25.75,45 C-25.75,45 -33,45 -33,45"></path></g></g><g transform="matrix(8,0,0,8,881.1600341796875,773.719970703125)" opacity="1" style="display: none;"><g opacity="1" transform="matrix(1,0,0,1,0,0)"><path stroke-linecap="round" stroke-linejoin="round" fill-opacity="0" stroke="rgb(10,117,35)" stroke-opacity="1" stroke-width="2" d=" M3.375999927520752,1.75600004196167 C4.546999931335449,2.365000009536743 5.355000019073486,2.7850000858306885 5.355000019073486,2.7850000858306885"></path></g></g><g transform="matrix(8,0,0,8,757.2000122070312,749.27197265625)" opacity="1" style="display: block;"><g opacity="1" transform="matrix(1,0,0,1,0,0)"><path stroke-linecap="round" stroke-linejoin="round" fill-opacity="0" stroke="rgb(10,117,35)" stroke-opacity="1" stroke-width="2" d=" M-4.150000095367432,-2.1600000858306885 C-4.150000095367432,-2.1600000858306885 -3.9549999237060547,-2.058000087738037 -3.625,-1.8869999647140503"></path></g></g><g transform="matrix(8,0,0,8,796,692)" opacity="1" style="display: block;"><g opacity="1" transform="matrix(1,0,0,1,0,0)"><path stroke-linecap="round" stroke-linejoin="round" fill-opacity="0" stroke="rgb(10,117,35)" stroke-opacity="1" stroke-width="2" d=" M-8,0 C-8,0 -6.497000217437744,0 -4.413000106811523,0"></path></g></g><g transform="matrix(8,0,0,8,874,582)" opacity="1" style="display: block;"><g opacity="1" transform="matrix(1,0,0,1,0,0)"><path stroke-linecap="round" stroke-linejoin="round" fill-opacity="0" stroke="rgb(10,117,35)" stroke-opacity="1" stroke-width="2" d=" M-6.25,3.25 C-6.25,3.25 -3.609999895095825,1.8769999742507935 -0.7559999823570251,0.3930000066757202"></path></g></g><g transform="matrix(8,0,0,8,755.6400146484375,643.52001953125)" opacity="1" style="display: block;"><g opacity="1" transform="matrix(1,0,0,1,0,0)"><path stroke-linecap="round" stroke-linejoin="round" fill-opacity="0" stroke="rgb(10,117,35)" stroke-opacity="1" stroke-width="2" d=" M-3.6760001182556152,1.9149999618530273 C-2.884999990463257,1.5019999742507935 -0.5619999766349792,0.2930000126361847 1.315000057220459,-0.6850000023841858"></path></g></g><g transform="matrix(8,0,0,8,204,815.2000122070312)" opacity="1" style="display: block;"><g opacity="1" transform="matrix(1,0,0,1,0,0)"><path stroke-linecap="round" stroke-linejoin="round" fill-opacity="0" stroke="rgb(10,117,35)" stroke-opacity="1" stroke-width="2" d=" M3.253000020980835,-1.6920000314712524 C1.3009999990463257,-0.6769999861717224 -1.8200000524520874,0.9459999799728394 -3.611999988555908,1.878000020980835"></path></g></g><g transform="matrix(8,0,0,8,322.96002197265625,753.31201171875)" opacity="1" style="display: block;"><g opacity="1" transform="matrix(1,0,0,1,0,0)"><path stroke-linecap="round" stroke-linejoin="round" fill-opacity="0" stroke="rgb(10,117,35)" stroke-opacity="1" stroke-width="2" d=" M1.2330000400543213,-0.640999972820282 C-1.2640000581741333,0.6570000052452087 -4.176000118255615,2.1689999103546143 -4.939000129699707,2.565999984741211"></path></g></g><g transform="matrix(8,0,0,8,292,692)" opacity="1" style="display: block;"><g opacity="1" transform="matrix(1,0,0,1,0,0)"><path stroke-linecap="round" stroke-linejoin="round" fill-opacity="0" stroke="rgb(10,117,35)" stroke-opacity="1" stroke-width="2" d=" M-1.7230000495910645,0 C-5.072999954223633,0 -8,0 -8,0"></path></g></g><g transform="matrix(8,0,0,8,213.83999633789062,581.9119873046875)" opacity="1" style="display: block;"><g opacity="1" transform="matrix(1,0,0,1,0,0)"><path stroke-linecap="round" stroke-linejoin="round" fill-opacity="0" stroke="rgb(10,117,35)" stroke-opacity="1" stroke-width="2" d=" M-3.927000045776367,-2.0429999828338623 C-5.289999961853027,-2.750999927520752 -6.230000019073486,-3.240000009536743 -6.230000019073486,-3.240000009536743"></path></g></g><g transform="matrix(8,0,0,8,333.6000061035156,644.2000122070312)" opacity="0.9038229649278532" style="display: block;"><g opacity="1" transform="matrix(1,0,0,1,0,0)"><path stroke-linecap="round" stroke-linejoin="round" fill-opacity="0" stroke="rgb(10,117,35)" stroke-opacity="1" stroke-width="2" d=" M-3.490999937057495,-1.815000057220459 C-3.687999963760376,-1.9170000553131104 -3.799999952316284,-1.975000023841858 -3.799999952316284,-1.975000023841858"></path></g></g><g transform="matrix(7.998883247375488,0.13367678225040436,-0.13367678225040436,7.998883247375488,533.782958984375,535.0659790039062)" opacity="1" style="display: none;"><g opacity="1" transform="matrix(1,0,0,1,0,0)"><path stroke-linecap="round" stroke-linejoin="round" fill-opacity="0" stroke="rgb(153,11,58)" stroke-opacity="1" stroke-width="2" d=" M39.2140007019043,-43.99599838256836 C39.62300109863281,-43.56700134277344 39.97100067138672,-43.20199966430664 39.97100067138672,-43.20199966430664"></path></g><g opacity="1" transform="matrix(1,0,0,1,0,0)"><path stroke-linecap="round" stroke-linejoin="round" fill-opacity="0" stroke="rgb(153,11,58)" stroke-opacity="1" stroke-width="2" d=" M33.834999084472656,-49.63199996948242 C33.426998138427734,-50.060001373291016 33.08000183105469,-50.42300033569336 33.08000183105469,-50.42300033569336"></path></g><g opacity="1" transform="matrix(1,0,0,1,0,0)"><path stroke-linecap="round" stroke-linejoin="round" fill-opacity="0" stroke="rgb(153,11,58)" stroke-opacity="1" stroke-width="2" d=" M33.702999114990234,-44.124000549316406 C33.27399826049805,-43.71500015258789 32.909000396728516,-43.367000579833984 32.909000396728516,-43.367000579833984"></path></g><g opacity="1" transform="matrix(1,0,0,1,0,0)"><path stroke-linecap="round" stroke-linejoin="round" fill-opacity="0" stroke="rgb(153,11,58)" stroke-opacity="1" stroke-width="2" d=" M39.3380012512207,-49.50299835205078 C39.76599884033203,-49.9109992980957 40.12900161743164,-50.257999420166016 40.12900161743164,-50.257999420166016"></path></g></g><g transform="matrix(7.67935848236084,2.2421984672546387,-2.2421984672546387,7.67935848236084,424.2959899902344,602.0928955078125)" opacity="1" style="display: block;"><g opacity="1" transform="matrix(1,0,0,1,0,0)"><path stroke-linecap="round" stroke-linejoin="round" fill-opacity="0" stroke="rgb(153,11,58)" stroke-opacity="1" stroke-width="2" d=" M-46.05400085449219,-43.32400131225586 C-45.803001403808594,-43.0620002746582 -44.02899932861328,-41.20199966430664 -44.02899932861328,-41.20199966430664"></path></g><g opacity="1" transform="matrix(1,0,0,1,0,0)"><path stroke-linecap="round" stroke-linejoin="round" fill-opacity="0" stroke="rgb(153,11,58)" stroke-opacity="1" stroke-width="2" d=" M-48.9010009765625,-46.30799865722656 C-49.1510009765625,-46.56999969482422 -50.91999816894531,-48.42300033569336 -50.91999816894531,-48.42300033569336"></path></g><g opacity="1" transform="matrix(1,0,0,1,0,0)"><path stroke-linecap="round" stroke-linejoin="round" fill-opacity="0" stroke="rgb(153,11,58)" stroke-opacity="1" stroke-width="2" d=" M-48.96900177001953,-43.393001556396484 C-49.23099899291992,-43.141998291015625 -51.090999603271484,-41.367000579833984 -51.090999603271484,-41.367000579833984"></path></g><g opacity="1" transform="matrix(1,0,0,1,0,0)"><path stroke-linecap="round" stroke-linejoin="round" fill-opacity="0" stroke="rgb(153,11,58)" stroke-opacity="1" stroke-width="2" d=" M-45.986000061035156,-46.23899841308594 C-45.7239990234375,-46.48899841308594 -43.87099838256836,-48.257999420166016 -43.87099838256836,-48.257999420166016"></path></g></g><g transform="matrix(7.966487407684326,0,0,7.966487407684326,540.17431640625,538.31103515625)" opacity="1" style="display: block;"><g opacity="1" transform="matrix(1,0,0,1,0,0)"><path fill="rgb(10,117,35)" fill-opacity="1" d=" M5.202000141143799,-48.89899826049805 C7.131999969482422,-48.89899826049805 7.136000156402588,-51.89899826049805 5.202000141143799,-51.89899826049805 C3.2720000743865967,-51.89899826049805 3.2679998874664307,-48.89899826049805 5.202000141143799,-48.89899826049805 C5.202000141143799,-48.89899826049805 5.202000141143799,-48.89899826049805 5.202000141143799,-48.89899826049805z"></path></g></g><g transform="matrix(5.488382339477539,5.820451736450195,-5.820451736450195,5.488382339477539,525.2225341796875,214.80551147460938)" opacity="1" style="display: block;"><g opacity="1" transform="matrix(1,0,0,1,0,0)"><g opacity="1" transform="matrix(1,0,0,1,0,0)"><path fill="rgb(0,225,63)" fill-opacity="1" d=" M41.387001037597656,-26.858999252319336 C41.7599983215332,-27.266000747680664 42.393001556396484,-27.292999267578125 42.79999923706055,-26.920000076293945 C44.62900161743164,-25.243000030517578 47.48099899291992,-25.364999771118164 49.15800094604492,-27.194000244140625 C49.53099822998047,-27.60099983215332 50.16400146484375,-27.628999710083008 50.57099914550781,-27.256000518798828 C50.97800064086914,-26.882999420166016 51.005001068115234,-26.25 50.63199996948242,-25.843000411987305 C48.95500183105469,-24.013999938964844 49.077999114990234,-21.16200065612793 50.90700149536133,-19.485000610351562 C51.31399917602539,-19.11199951171875 51.340999603271484,-18.479000091552734 50.96799850463867,-18.07200050354004 C50.595001220703125,-17.665000915527344 49.96200180053711,-17.63800048828125 49.55500030517578,-18.01099967956543 C47.72600173950195,-19.687999725341797 44.874000549316406,-19.565000534057617 43.196998596191406,-17.736000061035156 C42.82400131225586,-17.32900047302246 42.191001892089844,-17.302000045776367 41.784000396728516,-17.674999237060547 C41.37699890136719,-18.04800033569336 41.349998474121094,-18.680999755859375 41.722999572753906,-19.08799934387207 C43.400001525878906,-20.91699981689453 43.277000427246094,-23.768999099731445 41.448001861572266,-25.445999145507812 C41.04100036621094,-25.819000244140625 41.013999938964844,-26.45199966430664 41.387001037597656,-26.858999252319336z"></path></g></g><g opacity="1" transform="matrix(1,0,0,1,0,0)"><path stroke-linecap="round" stroke-linejoin="round" fill-opacity="0" stroke="rgb(10,117,35)" stroke-opacity="1" stroke-width="2" d=" M45.8380012512207,-24.743999481201172 C47.32500076293945,-24.73699951171875 48.80699920654297,-25.332000732421875 49.89500045776367,-26.518999099731445 C47.84000015258789,-24.27899932861328 47.99100112915039,-20.80299949645996 50.23099899291992,-18.74799919128418 C48.97100067138672,-19.90399932861328 47.33000183105469,-20.363000869750977 45.768001556396484,-20.139999389648438"></path></g></g><g transform="matrix(0,8,-8,0,-11.4959716796875,804.3599853515625)" opacity="1" style="display: block;"><g opacity="1" transform="matrix(1,0,0,1,0,0)"><path fill="rgb(255,0,62)" fill-opacity="1" d=" M-52.987998962402344,-11.588000297546387 C-54.72200012207031,-12.956999778747559 -55.027000427246094,-15.461000442504883 -53.667999267578125,-17.183000564575195 C-52.308998107910156,-18.905000686645508 -49.801998138427734,-19.19099998474121 -48.06800079345703,-17.82200050354004 C-46.33399963378906,-16.452999114990234 -46.02899932861328,-13.949000358581543 -47.38800048828125,-12.22700023651123 C-48.74700164794922,-10.505000114440918 -51.25400161743164,-10.218999862670898 -52.987998962402344,-11.588000297546387z"></path></g><g opacity="1" transform="matrix(1,0,0,1,0,0)"><path stroke-linecap="round" stroke-linejoin="round" fill-opacity="0" stroke="rgb(153,11,58)" stroke-opacity="1" stroke-width="2" d=" M-48.446998596191406,-11.305000305175781 C-49.827999114990234,-10.460000038146973 -51.63800048828125,-10.522000312805176 -52.987998962402344,-11.588000297546387 C-54.722999572753906,-12.956999778747559 -55.027000427246094,-15.461000442504883 -53.667999267578125,-17.183000564575195 C-52.358001708984375,-18.843000411987305 -49.99100112915039,-19.16200065612793 -48.27000045776367,-17.9689998626709"></path></g></g><g transform="matrix(8,0,0,8,540,540)" opacity="1" style="display: block;"></g></g></svg>